<svg width="24" height="24" viewBox="0 0 24 24" fill="none" xmlns="http://www.w3.org/2000/svg">
<rect width="24" height="24" fill="#E5E5E5"/>
<path d="M20.5851 9.46798C21.2451 9.46798 21.7851 8.92998 21.7851 8.26798C21.7851 7.60598 21.2451 7.06798 20.5851 7.06798H17.3651L17.6751 3.52098C17.7021 3.20298 17.6051 2.89098 17.3981 2.64598C17.1921 2.40098 16.9031 2.24998 16.5761 2.22098C15.9261 2.18598 15.3411 2.65298 15.2831 3.31398L14.9571 7.06798H9.90006L10.2081 3.52298C10.2681 2.86498 9.77806 2.28098 9.11106 2.22098C8.44606 2.17098 7.87606 2.65098 7.81806 3.31298L7.49306 7.06698H4.16306C3.50006 7.06698 2.96306 7.60498 2.96306 8.26698C2.96306 8.92898 3.50106 9.46698 4.16306 9.46698H7.28506L6.84506 14.531H3.41606C2.75406 14.531 2.21606 15.071 2.21606 15.731C2.21606 16.391 2.75406 16.933 3.41606 16.933H6.63606L6.32606 20.481C6.26906 21.138 6.75806 21.721 7.41606 21.781L7.52206 21.786C8.14806 21.786 8.66206 21.314 8.71706 20.688L9.04406 16.935H14.1001L13.7921 20.479C13.7321 21.137 14.2221 21.721 14.8821 21.781L14.9881 21.786C15.6051 21.786 16.1301 21.304 16.1831 20.688L16.5081 16.935H19.8381C20.4981 16.935 21.0381 16.395 21.0381 15.735C21.0381 15.075 20.4981 14.533 19.8381 14.533H16.7161L17.1561 9.46898H20.5861L20.5851 9.46798ZM14.7471 9.46798L14.3071 14.531H9.25306L9.69306 9.46898H14.7481L14.7471 9.46798Z" fill="black"/>
<rect x="-95.5" y="-68.5" width="602" height="323" rx="4.5" stroke="#7B61FF" stroke-dasharray="10 5"/>
</svg>
